<mxfile host="65bd71144e">
    <diagram id="01_xcEH4UmA5kcshdU0a" name="Page-1">
        <mxGraphModel dx="513" dy="671" grid="1" gridSize="10" guides="1" tooltips="1" connect="1" arrows="1" fold="1" page="1" pageScale="1" pageWidth="850" pageHeight="1100" background="#FFFFFF" math="0" shadow="0">
            <root>
                <mxCell id="0"/>
                <mxCell id="1" parent="0"/>
                <mxCell id="22" value="" style="swimlane;startSize=0;fillColor=#f5f5f5;shadow=0;gradientColor=#FFFFFF;strokeColor=#666666;swimlaneFillColor=#FFFFFF;" parent="1" vertex="1">
                    <mxGeometry x="40" y="40" width="1320" height="400" as="geometry"/>
                </mxCell>
                <mxCell id="135" value="" style="group" vertex="1" connectable="0" parent="22">
                    <mxGeometry x="40" y="40" width="1240" height="320" as="geometry"/>
                </mxCell>
                <mxCell id="66" value="Servidor" style="swimlane;childLayout=stackLayout;resizeParent=1;resizeParentMax=0;startSize=20;html=1;labelBackgroundColor=#FFFFFF;fontColor=#000000;strokeColor=#000000;" vertex="1" parent="135">
                    <mxGeometry x="280" width="360" height="320" as="geometry"/>
                </mxCell>
                <mxCell id="67" value="Capa API" style="swimlane;startSize=20;html=1;labelBackgroundColor=#FFFFFF;fontColor=#000000;" vertex="1" parent="66">
                    <mxGeometry y="20" width="120" height="300" as="geometry"/>
                </mxCell>
                <mxCell id="91" value="" style="swimlane;startSize=0;fillColor=#FFFFFF;shadow=0;gradientColor=#FFFFFF;strokeColor=#666666;swimlaneFillColor=#FFFFCC;" vertex="1" parent="67">
                    <mxGeometry x="25" y="60" width="80" height="200" as="geometry"/>
                </mxCell>
                <mxCell id="92" value="Servicio Web" style="text;html=1;strokeColor=none;fillColor=none;align=center;verticalAlign=middle;whiteSpace=wrap;rounded=0;labelBackgroundColor=none;fillStyle=solid;fontColor=#000000;gradientColor=none;" vertex="1" parent="91">
                    <mxGeometry x="10" y="85" width="60" height="30" as="geometry"/>
                </mxCell>
                <mxCell id="119" value="" style="shape=flexArrow;endArrow=classic;startArrow=classic;html=1;fontColor=#99CCFF;strokeColor=#99CCFF;fillColor=#66B2FF;" edge="1" parent="67">
                    <mxGeometry width="100" height="100" relative="1" as="geometry">
                        <mxPoint x="-80" y="159.5" as="sourcePoint"/>
                        <mxPoint y="160" as="targetPoint"/>
                    </mxGeometry>
                </mxCell>
                <mxCell id="68" value="Capa Lógica" style="swimlane;startSize=20;html=1;labelBackgroundColor=#FFFFFF;fontColor=#000000;" vertex="1" parent="66">
                    <mxGeometry x="120" y="20" width="120" height="300" as="geometry"/>
                </mxCell>
                <mxCell id="95" value="" style="swimlane;startSize=0;fillColor=#FFFFFF;shadow=0;gradientColor=#FFFFFF;strokeColor=#666666;swimlaneFillColor=#CCFFFF;" vertex="1" parent="68">
                    <mxGeometry x="20" y="180" width="80" height="80" as="geometry"/>
                </mxCell>
                <mxCell id="96" value="Búsqueda de metadata" style="text;html=1;strokeColor=none;fillColor=none;align=center;verticalAlign=middle;whiteSpace=wrap;rounded=0;labelBackgroundColor=none;fillStyle=solid;fontColor=#000000;gradientColor=none;" vertex="1" parent="95">
                    <mxGeometry x="10" y="26" width="60" height="30" as="geometry"/>
                </mxCell>
                <mxCell id="137" value="" style="endArrow=classic;html=1;strokeColor=#000000;fontColor=#99CCFF;fillColor=#66B2FF;entryX=0;entryY=0.25;entryDx=0;entryDy=0;" edge="1" parent="95">
                    <mxGeometry width="50" height="50" relative="1" as="geometry">
                        <mxPoint x="-35" y="19.840000000000032" as="sourcePoint"/>
                        <mxPoint y="19.840000000000032" as="targetPoint"/>
                    </mxGeometry>
                </mxCell>
                <mxCell id="136" value="" style="endArrow=classic;html=1;strokeColor=#000000;fontColor=#99CCFF;fillColor=#66B2FF;entryX=0;entryY=0.25;entryDx=0;entryDy=0;" edge="1" parent="68" target="93">
                    <mxGeometry width="50" height="50" relative="1" as="geometry">
                        <mxPoint x="-15" y="80" as="sourcePoint"/>
                        <mxPoint x="25" y="80" as="targetPoint"/>
                    </mxGeometry>
                </mxCell>
                <mxCell id="139" value="" style="endArrow=classic;html=1;strokeColor=#000000;fontColor=#99CCFF;fillColor=#66B2FF;entryX=-0.009;entryY=0.234;entryDx=0;entryDy=0;entryPerimeter=0;" edge="1" parent="68" target="99">
                    <mxGeometry width="50" height="50" relative="1" as="geometry">
                        <mxPoint x="100" y="200.00000000000006" as="sourcePoint"/>
                        <mxPoint x="135" y="200.00000000000006" as="targetPoint"/>
                    </mxGeometry>
                </mxCell>
                <mxCell id="138" style="edgeStyle=none;html=1;exitX=0;exitY=0.75;exitDx=0;exitDy=0;entryX=1.002;entryY=0.3;entryDx=0;entryDy=0;entryPerimeter=0;strokeColor=#000000;fontColor=#99CCFF;fillColor=#66B2FF;" edge="1" parent="68">
                    <mxGeometry relative="1" as="geometry">
                        <mxPoint x="20" y="240" as="sourcePoint"/>
                        <mxPoint x="-14.840000000000032" y="240" as="targetPoint"/>
                    </mxGeometry>
                </mxCell>
                <mxCell id="69" value="Capa BDD" style="swimlane;startSize=20;html=1;labelBackgroundColor=#FFFFFF;fontColor=#000000;" vertex="1" parent="66">
                    <mxGeometry x="240" y="20" width="120" height="300" as="geometry"/>
                </mxCell>
                <mxCell id="97" value="" style="swimlane;startSize=0;fillColor=#FFFFFF;shadow=0;gradientColor=#FFFFFF;strokeColor=#666666;swimlaneFillColor=#E6FFCC;" vertex="1" parent="69">
                    <mxGeometry x="20" y="60" width="80" height="80" as="geometry"/>
                </mxCell>
                <mxCell id="98" value="Acciones BDD Vectorial" style="text;html=1;strokeColor=none;fillColor=none;align=center;verticalAlign=middle;whiteSpace=wrap;rounded=0;labelBackgroundColor=none;fillStyle=solid;fontColor=#000000;gradientColor=none;" vertex="1" parent="97">
                    <mxGeometry x="10" y="26" width="60" height="30" as="geometry"/>
                </mxCell>
                <mxCell id="99" value="" style="swimlane;startSize=0;fillColor=#FFFFFF;shadow=0;gradientColor=#FFFFFF;strokeColor=#666666;swimlaneFillColor=#E6FFCC;" vertex="1" parent="69">
                    <mxGeometry x="20" y="181" width="80" height="80" as="geometry"/>
                </mxCell>
                <mxCell id="100" value="Acciones BDD Documental" style="text;html=1;strokeColor=none;fillColor=none;align=center;verticalAlign=middle;whiteSpace=wrap;rounded=0;labelBackgroundColor=none;fillStyle=solid;fontColor=#000000;gradientColor=none;" vertex="1" parent="99">
                    <mxGeometry x="10" y="26" width="60" height="30" as="geometry"/>
                </mxCell>
                <mxCell id="64" value="Cliente" style="swimlane;labelBackgroundColor=#FFFFFF;fontColor=#000000;startSize=40;strokeColor=#000000;" vertex="1" parent="135">
                    <mxGeometry width="200" height="320" as="geometry"/>
                </mxCell>
                <mxCell id="89" value="" style="swimlane;startSize=0;fillColor=#FFFFFF;shadow=0;gradientColor=#FFFFFF;strokeColor=#666666;swimlaneFillColor=#E5CCFF;" vertex="1" parent="64">
                    <mxGeometry x="40" y="120" width="120" height="120" as="geometry"/>
                </mxCell>
                <mxCell id="90" value="Aplicación cliente" style="text;html=1;strokeColor=none;fillColor=none;align=center;verticalAlign=middle;whiteSpace=wrap;rounded=0;labelBackgroundColor=none;fillStyle=solid;fontColor=#000000;gradientColor=none;" vertex="1" parent="89">
                    <mxGeometry x="30" y="45" width="60" height="30" as="geometry"/>
                </mxCell>
                <mxCell id="74" value="Bases de datos" style="swimlane;labelBackgroundColor=#FFFFFF;fontColor=#000000;startSize=40;strokeColor=#000000;" vertex="1" parent="135">
                    <mxGeometry x="720" width="160" height="320" as="geometry"/>
                </mxCell>
                <mxCell id="101" value="BDD Vectorial" style="strokeWidth=2;html=1;shape=mxgraph.flowchart.database;whiteSpace=wrap;labelBackgroundColor=none;fillStyle=solid;fillColor=#b0e3e6;strokeColor=#0e8088;fontColor=#000000;" vertex="1" parent="74">
                    <mxGeometry x="45" y="76" width="70" height="84" as="geometry"/>
                </mxCell>
                <mxCell id="102" value="BDD Documental" style="strokeWidth=2;html=1;shape=mxgraph.flowchart.database;whiteSpace=wrap;labelBackgroundColor=none;fillStyle=solid;fillColor=#b0e3e6;strokeColor=#0e8088;fontColor=#000000;" vertex="1" parent="74">
                    <mxGeometry x="45" y="201" width="70" height="84" as="geometry"/>
                </mxCell>
                <mxCell id="84" value="Análisis de datos" style="swimlane;childLayout=stackLayout;resizeParent=1;resizeParentMax=0;horizontal=1;startSize=20;horizontalStack=0;html=1;labelBackgroundColor=#FFFFFF;fontColor=#000000;strokeColor=#000000;" vertex="1" parent="135">
                    <mxGeometry x="960" width="280" height="320" as="geometry"/>
                </mxCell>
                <mxCell id="85" value="Extracciòn" style="swimlane;startSize=20;horizontal=0;html=1;labelBackgroundColor=#FFFFFF;fontColor=#000000;" vertex="1" parent="84">
                    <mxGeometry y="20" width="280" height="100" as="geometry"/>
                </mxCell>
                <mxCell id="116" value="" style="group" vertex="1" connectable="0" parent="85">
                    <mxGeometry x="51" y="10" width="195" height="80" as="geometry"/>
                </mxCell>
                <mxCell id="103" value="" style="swimlane;startSize=0;fillColor=#FFFFFF;shadow=0;gradientColor=#FFFFFF;strokeColor=#666666;swimlaneFillColor=#FFE6CC;" vertex="1" parent="116">
                    <mxGeometry x="111" width="80" height="80" as="geometry"/>
                </mxCell>
                <mxCell id="104" value="Transcripción a Texto" style="text;html=1;strokeColor=none;fillColor=none;align=center;verticalAlign=middle;whiteSpace=wrap;rounded=0;labelBackgroundColor=none;fillStyle=solid;fontColor=#000000;gradientColor=none;" vertex="1" parent="103">
                    <mxGeometry x="10" y="25" width="60" height="30" as="geometry"/>
                </mxCell>
                <mxCell id="105" value="" style="swimlane;startSize=0;fillColor=#FFFFFF;shadow=0;gradientColor=#FFFFFF;strokeColor=#666666;swimlaneFillColor=#FFE6CC;" vertex="1" parent="116">
                    <mxGeometry width="80" height="80" as="geometry"/>
                </mxCell>
                <mxCell id="106" value="Conversión a audio" style="text;html=1;strokeColor=none;fillColor=none;align=center;verticalAlign=middle;whiteSpace=wrap;rounded=0;labelBackgroundColor=none;fillStyle=solid;fontColor=#000000;gradientColor=none;" vertex="1" parent="105">
                    <mxGeometry x="10" y="25" width="60" height="30" as="geometry"/>
                </mxCell>
                <mxCell id="86" value="Preparación" style="swimlane;startSize=20;horizontal=0;html=1;labelBackgroundColor=#FFFFFF;fontColor=#000000;" vertex="1" parent="84">
                    <mxGeometry y="120" width="280" height="100" as="geometry"/>
                </mxCell>
                <mxCell id="117" value="" style="group" vertex="1" connectable="0" parent="86">
                    <mxGeometry x="50" y="10" width="200" height="80" as="geometry"/>
                </mxCell>
                <mxCell id="108" value="" style="swimlane;startSize=0;fillColor=#FFFFFF;shadow=0;gradientColor=#FFFFFF;strokeColor=#666666;swimlaneFillColor=#FFE6CC;" vertex="1" parent="117">
                    <mxGeometry width="80" height="80" as="geometry"/>
                </mxCell>
                <mxCell id="109" value="Creación de chunks" style="text;html=1;strokeColor=none;fillColor=none;align=center;verticalAlign=middle;whiteSpace=wrap;rounded=0;labelBackgroundColor=none;fillStyle=solid;fontColor=#000000;gradientColor=none;" vertex="1" parent="108">
                    <mxGeometry x="10" y="25" width="60" height="30" as="geometry"/>
                </mxCell>
                <mxCell id="110" value="" style="swimlane;startSize=0;fillColor=#FFFFFF;shadow=0;gradientColor=#FFFFFF;strokeColor=#666666;swimlaneFillColor=#FFE6CC;" vertex="1" parent="117">
                    <mxGeometry x="110" width="80" height="80" as="geometry"/>
                </mxCell>
                <mxCell id="111" value="Extracción de entidades" style="text;html=1;strokeColor=none;fillColor=none;align=center;verticalAlign=middle;whiteSpace=wrap;rounded=0;labelBackgroundColor=none;fillStyle=solid;fontColor=#000000;gradientColor=none;" vertex="1" parent="110">
                    <mxGeometry x="10" y="25" width="60" height="30" as="geometry"/>
                </mxCell>
                <mxCell id="87" value="Modelado" style="swimlane;startSize=20;horizontal=0;html=1;labelBackgroundColor=#FFFFFF;fontColor=#000000;" vertex="1" parent="84">
                    <mxGeometry y="220" width="280" height="100" as="geometry"/>
                </mxCell>
                <mxCell id="129" value="" style="swimlane;startSize=0;fillColor=#FFFFFF;shadow=0;gradientColor=#FFFFFF;strokeColor=#666666;swimlaneFillColor=#FFE6CC;" vertex="1" parent="87">
                    <mxGeometry x="51" y="7" width="190" height="40" as="geometry"/>
                </mxCell>
                <mxCell id="130" value="Embedding de texto" style="text;html=1;strokeColor=none;fillColor=none;align=center;verticalAlign=middle;whiteSpace=wrap;rounded=0;labelBackgroundColor=none;fillStyle=solid;fontColor=#000000;gradientColor=none;" vertex="1" parent="129">
                    <mxGeometry x="10" y="5" width="170" height="30" as="geometry"/>
                </mxCell>
                <mxCell id="131" value="" style="swimlane;startSize=0;fillColor=#FFFFFF;shadow=0;gradientColor=#FFFFFF;strokeColor=#666666;swimlaneFillColor=#FFE6CC;" vertex="1" parent="87">
                    <mxGeometry x="51" y="55" width="190" height="40" as="geometry"/>
                </mxCell>
                <mxCell id="132" value="Estructuración de metadata" style="text;html=1;strokeColor=none;fillColor=none;align=center;verticalAlign=middle;whiteSpace=wrap;rounded=0;labelBackgroundColor=none;fillStyle=solid;fontColor=#000000;gradientColor=none;" vertex="1" parent="131">
                    <mxGeometry x="11" y="5" width="170" height="30" as="geometry"/>
                </mxCell>
                <mxCell id="127" style="edgeStyle=none;html=1;exitX=0;exitY=0.75;exitDx=0;exitDy=0;entryX=1.002;entryY=0.3;entryDx=0;entryDy=0;entryPerimeter=0;strokeColor=#000000;fontColor=#99CCFF;fillColor=#66B2FF;" edge="1" parent="135" source="93" target="91">
                    <mxGeometry relative="1" as="geometry"/>
                </mxCell>
                <mxCell id="93" value="" style="swimlane;startSize=0;fillColor=#FFFFFF;shadow=0;gradientColor=#FFFFFF;strokeColor=#666666;swimlaneFillColor=#CCFFFF;" vertex="1" parent="135">
                    <mxGeometry x="420" y="80" width="80" height="80" as="geometry"/>
                </mxCell>
                <mxCell id="94" value="IA Generativa" style="text;html=1;strokeColor=none;fillColor=none;align=center;verticalAlign=middle;whiteSpace=wrap;rounded=0;labelBackgroundColor=none;fillStyle=solid;fontColor=#000000;gradientColor=none;" vertex="1" parent="93">
                    <mxGeometry x="10" y="26" width="60" height="30" as="geometry"/>
                </mxCell>
                <mxCell id="121" value="" style="endArrow=classic;html=1;strokeColor=#000000;fontColor=#99CCFF;fillColor=#66B2FF;entryX=0;entryY=0.25;entryDx=0;entryDy=0;" edge="1" parent="135" target="97">
                    <mxGeometry width="50" height="50" relative="1" as="geometry">
                        <mxPoint x="500" y="100" as="sourcePoint"/>
                        <mxPoint x="430" y="110" as="targetPoint"/>
                    </mxGeometry>
                </mxCell>
                <mxCell id="123" style="edgeStyle=none;html=1;exitX=1;exitY=0.25;exitDx=0;exitDy=0;entryX=-0.011;entryY=0.284;entryDx=0;entryDy=0;entryPerimeter=0;strokeColor=#000000;fontColor=#99CCFF;fillColor=#66B2FF;" edge="1" parent="135" source="97" target="101">
                    <mxGeometry relative="1" as="geometry"/>
                </mxCell>
                <mxCell id="124" style="edgeStyle=none;html=1;entryX=1;entryY=0.75;entryDx=0;entryDy=0;strokeColor=#000000;fontColor=#99CCFF;fillColor=#66B2FF;exitX=0;exitY=0.762;exitDx=0;exitDy=0;exitPerimeter=0;" edge="1" parent="135" source="101" target="97">
                    <mxGeometry relative="1" as="geometry"/>
                </mxCell>
                <mxCell id="125" style="edgeStyle=none;html=1;exitX=0;exitY=0.75;exitDx=0;exitDy=0;entryX=1;entryY=0.75;entryDx=0;entryDy=0;strokeColor=#000000;fontColor=#99CCFF;fillColor=#66B2FF;" edge="1" parent="135" source="97" target="93">
                    <mxGeometry relative="1" as="geometry"/>
                </mxCell>
                <mxCell id="133" style="edgeStyle=none;html=1;entryX=1;entryY=0.5;entryDx=0;entryDy=0;entryPerimeter=0;strokeColor=#000000;fontColor=#99CCFF;fillColor=#66B2FF;" edge="1" parent="135" target="101">
                    <mxGeometry relative="1" as="geometry">
                        <mxPoint x="1010" y="247" as="sourcePoint"/>
                        <Array as="points">
                            <mxPoint x="930" y="247"/>
                            <mxPoint x="930" y="120"/>
                        </Array>
                    </mxGeometry>
                </mxCell>
                <mxCell id="134" style="edgeStyle=none;html=1;exitX=0;exitY=0.5;exitDx=0;exitDy=0;entryX=1;entryY=0.5;entryDx=0;entryDy=0;entryPerimeter=0;strokeColor=#000000;fontColor=#99CCFF;fillColor=#66B2FF;" edge="1" parent="135" source="131" target="102">
                    <mxGeometry relative="1" as="geometry">
                        <Array as="points">
                            <mxPoint x="910" y="295"/>
                            <mxPoint x="910" y="243"/>
                        </Array>
                    </mxGeometry>
                </mxCell>
                <mxCell id="143" style="edgeStyle=none;html=1;entryX=1;entryY=0.75;entryDx=0;entryDy=0;strokeColor=#000000;fontColor=#99CCFF;fillColor=#66B2FF;exitX=0;exitY=0.762;exitDx=0;exitDy=0;exitPerimeter=0;" edge="1" parent="135">
                    <mxGeometry relative="1" as="geometry">
                        <mxPoint x="765.0000000000002" y="260.0079999999999" as="sourcePoint"/>
                        <mxPoint x="620" y="259.9999999999999" as="targetPoint"/>
                    </mxGeometry>
                </mxCell>
                <mxCell id="142" style="edgeStyle=none;html=1;exitX=0;exitY=0.75;exitDx=0;exitDy=0;entryX=1;entryY=0.75;entryDx=0;entryDy=0;strokeColor=#000000;fontColor=#99CCFF;fillColor=#66B2FF;" edge="1" parent="22">
                    <mxGeometry relative="1" as="geometry">
                        <mxPoint x="580" y="300" as="sourcePoint"/>
                        <mxPoint x="540" y="300" as="targetPoint"/>
                    </mxGeometry>
                </mxCell>
                <mxCell id="144" style="edgeStyle=none;html=1;exitX=1;exitY=0.25;exitDx=0;exitDy=0;entryX=-0.011;entryY=0.284;entryDx=0;entryDy=0;entryPerimeter=0;strokeColor=#000000;fontColor=#99CCFF;fillColor=#66B2FF;" edge="1" parent="22">
                    <mxGeometry relative="1" as="geometry">
                        <mxPoint x="660" y="260.1399999999999" as="sourcePoint"/>
                        <mxPoint x="804.2300000000002" y="259.996" as="targetPoint"/>
                    </mxGeometry>
                </mxCell>
            </root>
        </mxGraphModel>
    </diagram>
</mxfile>